<svg id="Layer_1" enable-background="new 0 0 256 256" height="512" viewBox="0 0 256 256" width="512" xmlns="http://www.w3.org/2000/svg"><g><g><g><g><path d="m161.981 235.7c57.846-18.197 91.768-79.795 74.45-139.332-16.381-56.319-73.959-90.915-131.376-78.938-62.984 13.137-102.025 76.031-86.603 137.886 7.908 31.717 29.157 58.433 58.298 73.297l5.907-11.581c-25.789-13.154-44.593-36.796-51.591-64.862-13.647-54.735 20.9-110.388 76.633-122.013 50.807-10.598 101.757 20.016 116.253 69.851 15.323 52.68-14.689 107.183-65.87 123.289-3.279 1.032-5.192 4.431-4.361 7.766.905 3.634 4.689 5.76 8.26 4.637z" fill="#ffa91a"/></g></g><g><g><path d="m236.431 96.368c-5.779-19.868-16.69-37.027-30.907-50.397 11.776 12.548 20.825 27.926 25.907 45.397 17.318 59.537-16.604 121.135-74.45 139.332-1.111.35-2.242.384-3.302.157.015.069.024.139.041.208.906 3.632 4.689 5.759 8.26 4.635 57.847-18.198 91.769-79.796 74.451-139.332z" fill="#f79219"/></g></g><g><path d="m60.411 232.344 18.399-30.622c1.642-2.733 5.666-2.54 7.039.338l13.934 29.211c1.234 2.587-.573 5.593-3.436 5.718l-32.333 1.411c-3.186.139-5.245-3.323-3.603-6.056z" fill="#ffa91a"/></g><g><path d="m99.784 231.271-13.935-29.211c-.733-1.536-2.22-2.299-3.697-2.269l12.632 26.48c1.234 2.586-.573 5.593-3.436 5.718l-31.372 1.369c-.691 2.502 1.237 5.164 4.038 5.042l32.334-1.411c2.863-.125 4.67-3.132 3.436-5.718z" fill="#f79219"/></g></g><g><g><circle cx="128" cy="128" fill="#ffa91a" r="72.581"/></g><g><path d="m61.42 130c-1.1 0-2-.9-2-2 0-1.101.9-2 2-2s2 .899 2 2c0 1.1-.9 2-2 2zm.47-7.98c-.08 0-.16 0-.23-.01-.53-.07-1.01-.33-1.34-.75s-.47-.95-.41-1.48c1.04-8.659 3.69-16.939 7.89-24.609 4.09-7.47 9.46-14.05 15.99-19.561l.04-.04.02-.01c2.1-1.77 4.32-3.43 6.59-4.92.9-.59 2.19-.32 2.78.57.6.92.34 2.17-.58 2.77-2.13 1.4-4.22 2.96-6.2 4.63-.01 0-.01.011-.01.011l-.06.04c-12.56 10.619-20.55 25.39-22.49 41.6-.12.999-.97 1.759-1.99 1.759z" fill="#ffc91d"/></g><g><path d="m175.718 73.335c11.148 12.76 17.916 29.444 17.916 47.718 0 40.086-32.496 72.581-72.581 72.581-18.274 0-34.958-6.768-47.718-17.916 13.305 15.229 32.854 24.863 54.665 24.863 40.086 0 72.581-32.496 72.581-72.581 0-21.811-9.634-41.36-24.863-54.665z" fill="#f79219"/></g><g><circle cx="128" cy="128" fill="#e63950" r="59.332"/></g><g><path d="m164.644 81.355c7.939 10.091 12.687 22.809 12.687 36.645 0 32.768-26.564 59.332-59.332 59.332-13.835 0-26.554-4.749-36.645-12.688 10.863 13.809 27.712 22.688 46.645 22.688 32.768 0 59.332-26.564 59.332-59.332.001-18.933-8.878-35.781-22.687-46.645z" fill="#d10028"/></g><g><path d="m167.371 83.629c9.302 10.476 14.961 24.26 14.961 39.371 0 32.768-26.564 59.332-59.332 59.332-15.112 0-28.895-5.659-39.371-14.961 10.869 12.24 26.714 19.961 44.371 19.961 32.768 0 59.332-26.564 59.332-59.332 0-17.656-7.721-33.502-19.961-44.371z" fill="#b7022d"/></g><g><g><g><g><path d="m171.117 168.764c-3.382 3.579-7.207 6.739-11.388 9.383-9.174 5.817-20.058 9.187-31.729 9.187-16.983 0-32.294-7.133-43.117-18.57 2.976-10.318 12.482-17.857 23.76-17.857h38.714c11.277 0 20.783 7.539 23.76 17.857z" fill="#478cf7"/></g><g><path d="m159.729 178.147v-8.695c0-7.17-3.062-13.638-7.944-18.152 9.285 1.685 16.762 8.535 19.332 17.463-3.382 3.58-7.207 6.74-11.388 9.384z" fill="#377de2"/></g></g><g><g><path d="m120.895 137.649v17.585c0 1.36.391 2.692 1.125 3.837 2.796 4.358 9.164 4.358 11.961 0 .735-1.145 1.125-2.477 1.125-3.837v-17.585z" fill="#fcc4ae"/></g><g><g><path d="m120.895 143.148c2.233.747 4.621 1.158 7.105 1.158 2.485 0 4.873-.411 7.106-1.158v-5.498h-14.211z" fill="#f2ad97"/></g><g><path d="m128 141.214c-12.368 0-22.394-10.026-22.394-22.394v-11.624c0-12.368 10.026-22.394 22.394-22.394 12.368 0 22.394 10.026 22.394 22.394v11.624c-.001 12.368-10.027 22.394-22.394 22.394z" fill="#ffd2c0"/></g><g><path d="m105.606 107.196v5.976c8.726-5.825 14.309-15.764 14.274-26.661 0-.064-.001-.127-.001-.19-8.353 3.252-14.273 11.372-14.273 20.875z" fill="#f2ad97"/></g><g><path d="m142.213 89.892c3.179 3.866 5.089 8.817 5.089 14.213v11.624c0 12.368-10.026 22.394-22.394 22.394-5.397 0-10.347-1.91-14.213-5.089 4.107 4.995 10.333 8.18 17.305 8.18 12.368 0 22.394-10.026 22.394-22.394v-11.624c-.001-6.971-3.187-13.197-8.181-17.304z" fill="#fcc4ae"/></g><g><path d="m105.607 118.82v-6.998c-3.984 0-7.213 3.229-7.213 7.213s3.23 7.213 7.213 7.213c.42 0 .829-.043 1.229-.112-.793-2.293-1.229-4.753-1.229-7.316z" fill="#ffd2c0"/></g><g><path d="m150.393 111.822v6.998c0 2.563-.436 5.023-1.229 7.316.4.069.809.112 1.229.112 3.984 0 7.213-3.229 7.213-7.213.001-3.983-3.229-7.213-7.213-7.213z" fill="#ffd2c0"/></g><g><path d="m154.838 113.354c.96 1.225 1.532 2.768 1.532 4.445 0 3.861-3.034 7.013-6.847 7.204-.11.382-.229.76-.358 1.134.4.069.809.112 1.229.112 3.984 0 7.213-3.229 7.213-7.213 0-2.307-1.084-4.361-2.769-5.682z" fill="#fcc4ae"/></g><g><path d="m119.88 80.328c.038 11.89-6.612 22.641-16.737 28.15-2.142 1.165-4.771-.512-4.557-2.941.728-8.251 4.395-15.803 10.159-21.122 3.114-2.884 6.839-5.108 11.043-6.445.059.78.092 1.564.092 2.358z" fill="#7c3108"/></g><g><path d="m155.594 106.516c-18.772 9.691-42.373-1.37-46.849-22.101 3.097-2.868 6.798-5.083 10.972-6.422 17.452-5.666 34.844 7.616 37.494 25.367.191 1.284-.464 2.561-1.617 3.156z" fill="#8c3f0a"/></g><g><path d="m157.211 103.361c-1.271-8.514-5.934-15.999-12.367-20.859 3.186 4.197 5.402 9.241 6.218 14.71.192 1.283-.464 2.561-1.617 3.156-11.689 6.034-25.249 4.022-34.9-3.36 9.237 12.117 26.578 16.98 41.049 9.509 1.153-.596 1.808-1.873 1.617-3.156z" fill="#7c3108"/></g><g><g><circle cx="118.472" cy="115.887" fill="#995222" r="2.713"/></g><g><circle cx="139.52" cy="115.887" fill="#995222" r="2.713"/></g></g><g><g><path d="m105.607 118.821v-3.93c-2.289 0-4.145 1.856-4.145 4.145s1.856 4.145 4.145 4.145c.146 0 .283-.028.425-.043-.273-1.398-.425-2.84-.425-4.317z" fill="#f2ad97"/></g><g><path d="m150.397 118.821v-3.93c2.289 0 4.145 1.856 4.145 4.145s-1.856 4.145-4.145 4.145c-.146 0-.283-.028-.425-.043.273-1.398.425-2.84.425-4.317z" fill="#f2ad97"/></g></g></g></g><g><path d="m131.669 127.12c.616 0 1.083.575.94 1.174-.53 2.228-2.532 3.885-4.922 3.885s-4.392-1.657-4.922-3.885c-.142-.599.324-1.174.94-1.174z" fill="#e59076"/></g><g><g><g><path d="m143.987 150.907-13.405 36.365c-.861.037-1.722.062-2.583.062s-1.722-.025-2.583-.062l-13.392-36.365 8.842-3.997v3.837l7.134 11.105 7.133-11.105v-3.837z" fill="#d1d3d4"/></g><g><path d="m112.024 150.903 6.673 18.101c.272.736 1.215.943 1.769.388l7.534-7.535-7.128-11.109v-3.84z" fill="#f1f2f2"/></g><g><path d="m143.982 150.903-6.679 18.101c-.272.736-1.215.943-1.769.388l-7.534-7.535 7.128-11.109v-3.84z" fill="#f1f2f2"/></g><g><path d="m133.967 167.824-4.446 4.446c-.84.84-2.202.84-3.042 0l-4.446-4.446 5.967-5.967z" fill="#e63950"/></g><g><path d="m132.366 182.415-1.783 4.858c-.861.037-1.722.062-2.583.062s-1.722-.025-2.583-.062l-1.783-4.858 1.316-11.671 1.525 1.525c.849.836 2.201.836 3.05 0l1.525-1.525z" fill="#b7022d"/></g></g><g><path d="m125.417 187.272c-1.414-.049-2.804-.16-4.181-.332l-14.352-15.545c-.406-.443-.381-1.131.086-1.525l3.788-3.345c.701-.627.332-1.783-.59-1.882l-4.464-.48c-.689-.074-1.131-.775-.898-1.439l4.292-11.818h2.927z" fill="#5e9cf7"/></g><g><path d="m150.296 164.164-4.464.48c-.922.098-1.291 1.254-.59 1.882l3.788 3.345c.467.394.492 1.082.086 1.525l-14.352 15.545c-1.377.172-2.767.283-4.181.332l13.405-36.365h2.927l4.28 11.818c.233.664-.21 1.365-.899 1.438z" fill="#5e9cf7"/></g></g></g></g></g><g><g><circle cx="128" cy="203.988" fill="#e6e7e8" r="27.915"/></g><g><path d="m147.739 184.249c-.847-.847-1.74-1.621-2.663-2.337 8.491 10.95 7.717 26.761-2.337 36.815s-25.865 10.828-36.815 2.337c.716.923 1.489 1.816 2.337 2.663 10.902 10.901 28.576 10.901 39.478 0s10.902-28.576 0-39.478z" fill="#d1d3d4"/></g><g><g><path d="m124.977 218.782c-1.252 0-2.504-.478-3.46-1.433l-9.634-9.634c-1.91-1.911-1.91-5.008 0-6.919 1.911-1.91 5.008-1.91 6.919 0l6.175 6.176 12.254-12.255c1.911-1.91 5.008-1.91 6.919 0 1.91 1.911 1.91 5.008 0 6.919l-15.714 15.714c-.955.955-2.207 1.432-3.459 1.432z" fill="#478cf7"/></g></g><g><g><path d="m144.15 194.717c-.35-.35-.749-.613-1.164-.835.988 1.851.724 4.194-.836 5.754l-15.714 15.714c-.955.955-2.207 1.433-3.459 1.433s-2.504-.478-3.459-1.433l2 2c.955.955 2.207 1.433 3.459 1.433s2.504-.478 3.459-1.433l15.714-15.714c1.91-1.911 1.91-5.008 0-6.919z" fill="#377de2"/></g></g></g></g></svg>